<svg width="139" height="96" viewBox="0 0 139 96" fill="none" xmlns="http://www.w3.org/2000/svg">
<path d="M134.794 66H131.353V45.7312C131.353 43.35 130.257 41.0625 128.321 39.375L106.84 20.6437C104.905 18.9562 102.282 18 99.5508 18H90.0681V9C90.0681 4.03125 85.4451 0 79.7468 0H10.9383C5.24014 0 0.617065 4.03125 0.617065 9V69C0.617065 73.9688 5.24014 78 10.9383 78H14.3788C14.3788 87.9375 23.6249 96 35.0213 96C46.4177 96 55.6639 87.9375 55.6639 78H83.1873C83.1873 87.9375 92.4334 96 103.83 96C115.226 96 124.472 87.9375 124.472 78H134.794C136.686 78 138.234 76.65 138.234 75V69C138.234 67.35 136.686 66 134.794 66ZM35.0213 87C29.3231 87 24.7 82.9688 24.7 78C24.7 73.0312 29.3231 69 35.0213 69C40.7195 69 45.3426 73.0312 45.3426 78C45.3426 82.9688 40.7195 87 35.0213 87ZM103.83 87C98.1316 87 93.5086 82.9688 93.5086 78C93.5086 73.0312 98.1316 69 103.83 69C109.528 69 114.151 73.0312 114.151 78C114.151 82.9688 109.528 87 103.83 87ZM121.032 48H90.0681V27H99.5508L121.032 45.7312V48Z" fill="#839CB5"/>
</svg>
