<svg width="55" height="55" viewBox="0 0 55 55" fill="none" xmlns="http://www.w3.org/2000/svg">
<path fill-rule="evenodd" clip-rule="evenodd" d="M27.5 55C42.6878 55 55 42.6878 55 27.5C55 12.3122 42.6878 0 27.5 0C12.3122 0 0 12.3122 0 27.5C0 42.6878 12.3122 55 27.5 55ZM41.0564 19.4094L38.881 30.1775C38.7668 30.7432 38.3198 31.1446 37.8041 31.1446H24.3143L24.6155 32.8012H36.9674C37.6761 32.8012 38.2014 33.5416 38.0443 34.319L37.7905 35.5758C38.6506 36.0455 39.2436 37.0374 39.2436 38.1852C39.2436 39.7864 38.0899 41.0843 36.6667 41.0843C35.2434 41.0843 34.0897 39.7864 34.0897 38.1852C34.0897 37.3738 34.3864 36.6407 34.8638 36.1145H25.2164C25.694 36.6407 25.9906 37.3738 25.9906 38.1852C25.9906 39.7864 24.8369 41.0843 23.4137 41.0843C21.9904 41.0843 20.8367 39.7864 20.8367 38.1852C20.8367 37.1096 21.3578 36.1714 22.1312 35.6711L18.8986 17.8916H15.6827C15.0728 17.8916 14.5783 17.3353 14.5783 16.6491V15.8208C14.5783 15.1346 15.0728 14.5783 15.6827 14.5783H20.4009C20.9255 14.5783 21.3778 14.9936 21.4829 15.5718L21.9047 17.8916H39.9795C40.6882 17.8916 41.2135 18.6319 41.0564 19.4094Z" fill="#1863AD"/>
</svg>
