<svg width="122" height="122" viewBox="0 0 122 122" fill="none" xmlns="http://www.w3.org/2000/svg">
<path d="M57.8676 34.384L69.2618 37.7914C69.6487 37.8941 69.995 38.139 70.2467 38.488C70.4984 38.837 70.6415 39.2707 70.6538 39.7215C70.6538 40.8176 69.795 41.723 68.739 41.723H61.2646C60.4592 41.7204 59.6616 41.5424 58.9152 41.1988C57.8151 40.6746 56.5469 40.7937 55.7029 41.6754L51.7138 45.8453C51.5293 46.0286 51.3701 46.2422 51.2414 46.4791C51.0767 46.7857 50.9671 47.1263 50.9189 47.4812C50.8707 47.8361 50.8849 48.1983 50.9606 48.5469C51.0364 48.8956 51.1721 49.2237 51.3601 49.5126C51.5481 49.8014 51.7846 50.0451 52.056 50.2297C54.2652 51.7344 56.7387 52.6698 59.3015 52.9699V57.1875C59.3015 59.2844 60.9455 61 62.9484 61H66.5953C68.6004 61 70.2444 59.2844 70.2444 57.1875V52.9937C77.1581 52.1359 82.3881 45.607 81.4769 37.982C80.8155 32.5016 76.7613 28.141 71.7014 26.616L60.3072 23.2086C59.9202 23.1059 59.574 22.861 59.3223 22.512C59.0706 22.163 58.9275 21.7293 58.9152 21.2785C58.9152 20.1824 59.7739 19.277 60.83 19.277H68.3044C69.1127 19.2784 69.9131 19.4564 70.6622 19.8012C71.7602 20.3254 73.0304 20.2063 73.8745 19.3246L77.8636 15.1547C78.042 14.9753 78.1956 14.7664 78.3192 14.5352C78.4853 14.2287 78.5962 13.8879 78.6456 13.5324C78.695 13.177 78.6818 12.814 78.6068 12.4643C78.5318 12.1147 78.3966 11.7854 78.2088 11.4955C78.0211 11.2055 77.7846 10.9607 77.513 10.7751C75.303 9.27041 72.8289 8.33496 70.2653 8.03484V3.8125C70.2653 1.71563 68.6235 0 66.6184 0H62.9715C60.9665 0 59.3246 1.71563 59.3246 3.8125V8.00625C52.4192 8.86406 47.1788 15.393 48.09 23.018C48.7492 28.4984 52.8161 32.859 57.8676 34.384ZM119.638 78.1801C117.161 75.6305 113.298 75.7973 110.694 78.1801L91.2943 95.7891C88.913 97.9573 85.9492 99.1346 82.8962 99.125H58.0649C57.174 99.125 56.3195 98.7233 55.6895 98.0083C55.0596 97.2934 54.7056 96.3236 54.7056 95.3125C54.7056 94.3014 55.0596 93.3316 55.6895 92.6167C56.3195 91.9017 57.174 91.5 58.0649 91.5H74.5022C77.8405 91.5 80.9499 88.9027 81.4832 85.1617C81.5489 84.7321 81.5813 84.2967 81.5798 83.8607C81.5764 81.8409 80.8671 79.9051 79.6075 78.4782C78.3479 77.0514 76.6409 76.25 74.8612 76.25H41.2686C35.6032 76.2517 30.1105 78.4634 25.711 82.5144L15.9481 91.5H4.31666C3.42573 91.5 2.57129 91.9017 1.9413 92.6167C1.31132 93.3316 0.957397 94.3014 0.957397 95.3125L0.957397 118.188C0.957397 119.199 1.31132 120.168 1.9413 120.883C2.57129 121.598 3.42573 122 4.31666 122H79.222C82.2739 122.003 85.2358 120.826 87.6201 118.664L119.372 89.832C120.135 89.1387 120.756 88.2645 121.192 87.2705C121.627 86.2764 121.866 85.1865 121.891 84.0769C121.917 82.9673 121.729 81.8647 121.34 80.8462C120.951 79.8277 120.371 78.9178 119.64 78.1801H119.638Z" fill="#839CB5"/>
</svg>
