<svg width="61" height="64" viewBox="0 0 61 64" fill="none" xmlns="http://www.w3.org/2000/svg">
<path fill-rule="evenodd" clip-rule="evenodd" d="M30.4748 63.7793C47.0063 63.7793 60.4078 49.6119 60.4078 32.1355C60.4078 14.659 47.0063 0.491577 30.4748 0.491577C13.9433 0.491577 0.54187 14.659 0.54187 32.1355C0.54187 49.6119 13.9433 63.7793 30.4748 63.7793ZM30.4172 21.9545L29.2722 23.1099C28.7771 23.6043 28.7874 24.411 29.2929 24.895L35.5078 30.8699H20.6848C19.9988 30.8699 19.447 31.4268 19.447 32.119V33.7845C19.447 34.4767 19.9988 35.0336 20.6848 35.0336H35.5078L29.2929 41.0084C28.7926 41.4925 28.7823 42.2992 29.2722 42.7936L30.4172 43.949C30.8969 44.4383 31.6808 44.4383 32.1657 43.949L42.1921 33.8313C42.6769 33.3473 42.6769 32.5562 42.1921 32.067L32.1657 21.9545C31.686 21.4652 30.902 21.4652 30.4172 21.9545Z" fill="#839CB5"/>
</svg>
