<svg width="45" height="48" viewBox="0 0 45 48" fill="none" xmlns="http://www.w3.org/2000/svg">
<path d="M22.5 0C10.0706 0 0 10.6428 0 23.7784C0 36.9141 10.0706 47.5568 22.5 47.5568C34.9294 47.5568 45 36.9141 45 23.7784C45 10.6428 34.9294 0 22.5 0ZM33.5504 16.2901L29.8579 34.68C29.5857 35.984 28.8508 36.3004 27.8256 35.6868L22.2006 31.305L19.4879 34.0664C19.1885 34.3828 18.9345 34.6513 18.3538 34.6513L18.753 28.6012L29.1774 18.6488C29.6311 18.2269 29.0776 17.9872 28.4788 18.4091L15.5958 26.9808L10.0433 25.1495C8.83669 24.7468 8.80948 23.8743 10.2974 23.2607L31.9899 14.4205C32.997 14.0369 33.877 14.6793 33.5504 16.2901Z" fill="#608CB8"/>
</svg>
