<svg width="44" height="42" viewBox="0 0 44 42" fill="none" xmlns="http://www.w3.org/2000/svg">
<path d="M37.4098 6.10312C33.2946 2.16562 27.8143 0 21.9902 0C9.96875 0 0.186607 9.3375 0.186607 20.8125C0.186607 24.4781 1.18839 28.0594 3.09375 31.2188L0 42L11.5598 39.1031C14.742 40.7625 18.3268 41.6344 21.9804 41.6344H21.9902C34.0018 41.6344 44 32.2969 44 20.8219C44 15.2625 41.525 10.0406 37.4098 6.10312ZM21.9902 38.1281C18.7295 38.1281 15.5375 37.2938 12.758 35.7188L12.1 35.3438L5.24464 37.0594L7.07143 30.675L6.63929 30.0188C4.82232 27.2625 3.86964 24.0844 3.86964 20.8125C3.86964 11.2781 12.0018 3.51562 22 3.51562C26.842 3.51562 31.3893 5.31562 34.8071 8.5875C38.225 11.8594 40.3268 16.2 40.317 20.8219C40.317 30.3656 31.9786 38.1281 21.9902 38.1281ZM31.9295 25.1719C31.3893 24.9094 28.708 23.6531 28.2071 23.4844C27.7063 23.3062 27.3429 23.2219 26.9795 23.7469C26.6161 24.2719 25.575 25.4344 25.2509 25.7906C24.9366 26.1375 24.6125 26.1844 24.0723 25.9219C20.8705 24.3937 18.7688 23.1938 16.6571 19.7344C16.0973 18.8156 17.217 18.8813 18.258 16.8937C18.4348 16.5469 18.3464 16.2469 18.2089 15.9844C18.0714 15.7219 16.9813 13.1625 16.5295 12.1219C16.0875 11.1094 15.6357 11.25 15.3018 11.2313C14.9875 11.2125 14.6241 11.2125 14.2607 11.2125C13.8973 11.2125 13.308 11.3438 12.8071 11.8594C12.3062 12.3844 10.9018 13.6406 10.9018 16.2C10.9018 18.7594 12.8563 21.2344 13.1214 21.5813C13.3964 21.9281 16.9616 27.1781 22.4321 29.4375C25.8893 30.8625 27.2446 30.9844 28.9732 30.7406C30.0241 30.5906 32.1946 29.4844 32.6464 28.2656C33.0982 27.0469 33.0982 26.0063 32.9607 25.7906C32.833 25.5563 32.4696 25.425 31.9295 25.1719Z" fill="#608CB8"/>
</svg>
